<svg width="93" height="17" viewBox="0 0 93 17" fill="none" xmlns="http://www.w3.org/2000/svg">
<path d="M17.125 1V2.5625H9.625V16H7.75V2.5625H0.25V1H17.125ZM20.25 16V1H35.25V2.5625H22.125V7.5625H34.625V9.125H22.125V14.4375H35.25V16H20.25ZM47.2031 7.5625C48.2318 7.5625 49.1139 7.60482 49.8496 7.68945C50.5853 7.77409 51.2038 7.90104 51.7051 8.07031C52.2129 8.23307 52.6165 8.43815 52.916 8.68555C53.2155 8.93294 53.4466 9.21615 53.6094 9.53516C53.7721 9.84766 53.8763 10.1992 53.9219 10.5898C53.974 10.9805 54 11.4036 54 11.8594C54 12.3151 53.9577 12.7448 53.873 13.1484C53.7949 13.5456 53.6517 13.9102 53.4434 14.2422C53.235 14.5742 52.9518 14.8704 52.5938 15.1309C52.2357 15.3913 51.7799 15.6126 51.2266 15.7949C50.6732 15.9772 50.0059 16.1139 49.2246 16.2051C48.4499 16.3027 47.5417 16.3516 46.5 16.3516H44C43.0625 16.3516 42.2422 16.3158 41.5391 16.2441C40.8359 16.1725 40.2305 16.0651 39.7227 15.9219C39.2148 15.7721 38.7949 15.5866 38.4629 15.3652C38.1309 15.1374 37.8639 14.8737 37.6621 14.5742C37.4668 14.2682 37.3301 13.9232 37.252 13.5391C37.1738 13.1484 37.1348 12.7188 37.1348 12.25H39.0098C39.0098 12.8359 39.0944 13.2949 39.2637 13.627C39.4329 13.959 39.7129 14.2096 40.1035 14.3789C40.4941 14.5417 41.0052 14.6458 41.6367 14.6914C42.2747 14.7305 43.0625 14.75 44 14.75H46.5C47.5938 14.75 48.502 14.6979 49.2246 14.5938C49.9473 14.4896 50.5234 14.3236 50.9531 14.0957C51.3828 13.8678 51.6855 13.5716 51.8613 13.207C52.0371 12.8359 52.125 12.3867 52.125 11.8594C52.125 11.332 52.0632 10.8926 51.9395 10.541C51.8223 10.1895 51.5846 9.90951 51.2266 9.70117C50.875 9.49284 50.377 9.34635 49.7324 9.26172C49.0879 9.17057 48.2448 9.125 47.2031 9.125H44.625C43.4792 9.125 42.4961 9.08268 41.6758 8.99805C40.862 8.91341 40.1784 8.79297 39.625 8.63672C39.0716 8.47396 38.6289 8.27539 38.2969 8.04102C37.9648 7.80013 37.7109 7.52669 37.5352 7.2207C37.3659 6.91471 37.2552 6.57617 37.2031 6.20508C37.151 5.82747 37.125 5.42057 37.125 4.98438C37.125 4.52865 37.1641 4.10547 37.2422 3.71484C37.3268 3.32422 37.4798 2.97266 37.7012 2.66016C37.9225 2.34115 38.2253 2.05794 38.6094 1.81055C38.9935 1.56315 39.485 1.35807 40.084 1.19531C40.6895 1.02604 41.4154 0.899089 42.2617 0.814453C43.1081 0.729818 44.1042 0.6875 45.25 0.6875H47.125C48.0625 0.6875 48.8828 0.723307 49.5859 0.794922C50.2891 0.860026 50.8945 0.967448 51.4023 1.11719C51.9102 1.26042 52.3301 1.44271 52.6621 1.66406C53.0007 1.87891 53.2676 2.13932 53.4629 2.44531C53.6647 2.74479 53.8047 3.08659 53.8828 3.4707C53.9609 3.85482 54 4.28125 54 4.75H52.125C52.125 4.16406 52.0404 3.70508 51.8711 3.37305C51.7018 3.04102 51.4219 2.79362 51.0312 2.63086C50.6406 2.46159 50.1263 2.35742 49.4883 2.31836C48.8503 2.27279 48.0625 2.25 47.125 2.25H45.25C44 2.25 42.9714 2.29557 42.1641 2.38672C41.3568 2.47135 40.7188 2.61784 40.25 2.82617C39.7812 3.03451 39.4557 3.31445 39.2734 3.66602C39.0911 4.01758 39 4.45703 39 4.98438C39 5.3099 39.0228 5.59961 39.0684 5.85352C39.1139 6.10742 39.2051 6.33203 39.3418 6.52734C39.485 6.71615 39.6836 6.87565 39.9375 7.00586C40.1914 7.13607 40.5267 7.24349 40.9434 7.32812C41.36 7.41276 41.8678 7.47461 42.4668 7.51367C43.0723 7.54622 43.7917 7.5625 44.625 7.5625H47.2031ZM57.125 16V1H59V14.4375H70.875V16H57.125ZM88.0625 12.5625H76.1875L74.3125 16H72.125L80.875 1H83.375L92.125 16H89.9375L88.0625 12.5625ZM87.125 11L82.125 2.25L77.125 11H87.125Z" fill="#FF0707"/>
</svg>
